<?xml version="1.0" encoding="utf-8"?>
<!-- Generator: Adobe Illustrator 14.0.0, SVG Export Plug-In . SVG Version: 6.00 Build 43363)  -->
<!DOCTYPE svg PUBLIC "-//W3C//DTD SVG 1.1//EN" "http://www.w3.org/Graphics/SVG/1.1/DTD/svg11.dtd">
<svg version="1.1" id="Layer_1" xmlns="http://www.w3.org/2000/svg" xmlns:xlink="http://www.w3.org/1999/xlink" x="0px" y="0px"
	 width="792px" height="612px" viewBox="0 0 792 612" enable-background="new 0 0 792 612" xml:space="preserve">
<g>
	<defs>
		<rect id="SVGID_1_" width="792" height="612"/>
	</defs>
	<clipPath id="SVGID_2_">
		<use xlink:href="#SVGID_1_"  overflow="visible"/>
	</clipPath>
	<path clip-path="url(#SVGID_2_)" d="M492.143,102.111h0.778v-9.78h3.66v-0.718h-8.099v0.718h3.66V102.111z M479.315,97.058v-4.727
		h3.586c1.905,0,3.017,0.885,3.017,2.296v0.03c0,1.516-1.307,2.401-3.062,2.401H479.315z M478.538,102.111h0.777v-4.35h3.437
		l3.345,4.35h0.989l-3.464-4.485c1.771-0.239,3.073-1.243,3.073-2.999v-0.03c0-0.75-0.299-1.456-0.793-1.951
		c-0.63-0.629-1.666-1.033-2.956-1.033h-4.408V102.111z M468.262,98.468l2.775-6.077l2.759,6.077H468.262z M465.788,102.111h0.81
		l1.334-2.94h6.194l1.335,2.94h0.854l-4.889-10.573h-0.75L465.788,102.111z M455.288,102.111h0.777v-4.92h6.723v4.92h0.777V91.613
		h-0.777v4.86h-6.723v-4.86h-0.777V102.111z M448.971,102.291c1.86,0,3.06-0.733,4.17-1.828l-0.525-0.51
		c-1.064,1.05-2.1,1.635-3.614,1.635c-2.505,0-4.44-2.071-4.44-4.726v-0.03c0-2.641,1.905-4.696,4.425-4.696
		c1.575,0,2.625,0.66,3.54,1.545l0.556-0.57c-1.08-0.99-2.205-1.678-4.08-1.678c-3.03,0-5.248,2.458-5.248,5.429v0.03
		C443.753,99.908,445.971,102.291,448.971,102.291 M430.433,102.111h6.944v-0.718h-6.166v-9.78h-0.778V102.111z M420.157,98.468
		l2.775-6.077l2.759,6.077H420.157z M417.683,102.111h0.81l1.336-2.94h6.193l1.335,2.94h0.855l-4.891-10.573h-0.749L417.683,102.111
		z M406.733,102.111h0.748v-9.328l7.396,9.328h0.584V91.613h-0.748v9.133l-7.247-9.133h-0.733V102.111z M398.813,101.588
		c-2.596,0-4.486-2.131-4.486-4.726v-0.03c0-2.596,1.86-4.696,4.456-4.696s4.486,2.13,4.486,4.726v0.03
		C403.269,99.487,401.407,101.588,398.813,101.588 M398.782,102.291c3.181,0,5.295-2.563,5.295-5.429v-0.03
		c0-2.866-2.085-5.399-5.265-5.399c-3.181,0-5.294,2.563-5.294,5.429v0.03C393.519,99.757,395.602,102.291,398.782,102.291
		 M389.979,102.111h0.778V91.613h-0.778V102.111z M383.063,102.111h0.778v-9.78h3.66v-0.718h-8.098v0.718h3.66V102.111z
		 M371.229,98.468l2.774-6.077l2.76,6.077H371.229z M368.754,102.111h0.81l1.335-2.94h6.194l1.334,2.94h0.855l-4.889-10.573h-0.75
		L368.754,102.111z M358.793,102.111h8.293v-0.703h-7.183l7.183-9.361v-0.434h-8.038v0.703h6.929l-7.184,9.361V102.111z
		 M355.329,102.111h0.778V91.613h-0.778V102.111z M343.375,102.111h0.748v-9.328l7.396,9.328h0.584V91.613h-0.749v9.133
		l-7.246-9.133h-0.733V102.111z M333.099,98.468l2.775-6.077l2.759,6.077H333.099z M330.625,102.111h0.809l1.335-2.94h6.194
		l1.335,2.94h0.855l-4.889-10.573h-0.75L330.625,102.111z M324.579,102.291c1.71,0,3.181-0.733,4.124-1.574v-4.049h-4.259v0.718
		h3.511v3.016c-0.765,0.646-2.011,1.201-3.346,1.201c-2.806,0-4.501-2.026-4.501-4.741v-0.03c0-2.535,1.785-4.696,4.336-4.696
		c1.59,0,2.55,0.54,3.376,1.261l0.509-0.586c-1.049-0.869-2.13-1.378-3.84-1.378c-3.136,0-5.189,2.594-5.189,5.429v0.03
		C319.3,99.847,321.263,102.291,324.579,102.291 M309.698,97.058v-4.727h3.586c1.905,0,3.016,0.885,3.016,2.296v0.03
		c0,1.516-1.306,2.401-3.061,2.401H309.698z M308.92,102.111h0.778v-4.35h3.436l3.345,4.35h0.989l-3.464-4.485
		c1.771-0.239,3.074-1.243,3.074-2.999v-0.03c0-0.75-0.299-1.456-0.793-1.951c-0.63-0.629-1.666-1.033-2.956-1.033h-4.409V102.111z
		 M300.999,101.588c-2.596,0-4.486-2.131-4.486-4.726v-0.03c0-2.596,1.86-4.696,4.456-4.696c2.596,0,4.486,2.13,4.486,4.726v0.03
		C305.455,99.487,303.595,101.588,300.999,101.588 M300.969,102.291c3.181,0,5.294-2.563,5.294-5.429v-0.03
		c0-2.866-2.083-5.399-5.264-5.399c-3.181,0-5.294,2.563-5.294,5.429v0.03C295.705,99.757,297.788,102.291,300.969,102.291"/>
	<path clip-path="url(#SVGID_2_)" d="M546.61,70.784v-5.136h2.856c1.848,0,3,0.888,3,2.544v0.048c0,1.44-1.08,2.544-2.929,2.544
		H546.61z M542.914,79.112h3.696v-5.04h2.808c3.769,0,6.793-2.016,6.793-5.904V68.12c0-3.432-2.425-5.808-6.433-5.808h-6.864V79.112
		z M535.019,79.112h3.696v-16.8h-3.696V79.112z M516.61,79.112h3.696v-6.744h6.815v6.744h3.696v-16.8h-3.696v6.648h-6.815v-6.648
		h-3.696V79.112z M507.227,79.352c3.624,0,6.168-1.872,6.168-5.208v-0.048c0-2.928-1.92-4.152-5.328-5.04
		c-2.904-0.744-3.624-1.104-3.624-2.208V66.8c0-0.816,0.744-1.464,2.16-1.464s2.88,0.624,4.368,1.656l1.92-2.784
		c-1.704-1.368-3.792-2.136-6.24-2.136c-3.432,0-5.88,2.016-5.88,5.064v0.048c0,3.336,2.184,4.272,5.568,5.136
		c2.808,0.72,3.384,1.2,3.384,2.136v0.048c0,0.984-0.912,1.584-2.424,1.584c-1.92,0-3.504-0.792-5.017-2.04l-2.184,2.616
		C502.114,78.464,504.683,79.352,507.227,79.352 M482.29,79.112h3.648v-10.68l8.136,10.68h3.145v-16.8h-3.648v10.344l-7.872-10.344
		h-3.408V79.112z M459.803,79.232h3.216l3.792-10.992l3.792,10.992h3.216l5.736-16.92h-3.864l-3.479,11.376l-3.769-11.424h-3.168
		l-3.768,11.424l-3.48-11.376h-3.96L459.803,79.232z M444.132,75.992c-2.977,0-5.088-2.4-5.088-5.28v-0.048
		c0-2.88,2.063-5.232,5.04-5.232c2.976,0,5.088,2.4,5.088,5.28v0.048C449.172,73.64,447.107,75.992,444.132,75.992 M444.084,79.4
		c5.184,0,8.951-3.912,8.951-8.688v-0.048c0-4.776-3.72-8.64-8.903-8.64c-5.186,0-8.952,3.912-8.952,8.688v0.048
		C435.18,75.536,438.899,79.4,444.084,79.4 M425.004,79.112h3.695V65.72h5.112v-3.408h-13.92v3.408h5.112V79.112z M385.836,70.472
		v-4.824h3.672c1.8,0,2.904,0.816,2.904,2.4v0.048c0,1.416-1.032,2.376-2.832,2.376H385.836z M382.141,79.112h3.696v-5.376h2.904
		l3.6,5.376h4.32l-4.104-6c2.136-0.792,3.6-2.496,3.6-5.208v-0.048c0-1.584-0.504-2.904-1.44-3.84
		c-1.104-1.104-2.76-1.704-4.896-1.704h-7.68V79.112z M368.364,72.08l2.232-5.448l2.232,5.448H368.364z M361.74,79.112h3.768
		l1.536-3.768h7.104l1.536,3.768h3.864l-7.2-16.92h-3.408L361.74,79.112z M353.701,79.112h3.696V65.72h5.112v-3.408h-13.92v3.408
		h5.112V79.112z M340.765,79.352c3.624,0,6.168-1.872,6.168-5.208v-0.048c0-2.928-1.92-4.152-5.328-5.04
		c-2.904-0.744-3.624-1.104-3.624-2.208V66.8c0-0.816,0.744-1.464,2.16-1.464s2.88,0.624,4.368,1.656l1.92-2.784
		c-1.704-1.368-3.792-2.136-6.24-2.136c-3.432,0-5.88,2.016-5.88,5.064v0.048c0,3.336,2.184,4.272,5.568,5.136
		c2.808,0.72,3.384,1.2,3.384,2.136v0.048c0,0.984-0.912,1.584-2.424,1.584c-1.92,0-3.504-0.792-5.016-2.04l-2.184,2.616
		C335.652,78.464,338.221,79.352,340.765,79.352 M309.349,79.112h3.696v-6.744h6.816v6.744h3.696v-16.8h-3.696v6.648h-6.816v-6.648
		h-3.696V79.112z M297.708,79.112h3.696V65.72h5.112v-3.408h-13.92v3.408h5.112V79.112z M280.142,70.472v-4.824h3.672
		c1.8,0,2.904,0.816,2.904,2.4v0.048c0,1.416-1.032,2.376-2.832,2.376H280.142z M276.445,79.112h3.696v-5.376h2.904l3.6,5.376h4.32
		l-4.104-6c2.136-0.792,3.6-2.496,3.6-5.208v-0.048c0-1.584-0.504-2.904-1.44-3.84c-1.104-1.104-2.76-1.704-4.896-1.704h-7.68
		V79.112z M264.253,75.992c-2.976,0-5.088-2.4-5.088-5.28v-0.048c0-2.88,2.064-5.232,5.04-5.232s5.088,2.4,5.088,5.28v0.048
		C269.293,73.64,267.229,75.992,264.253,75.992 M264.206,79.4c5.184,0,8.952-3.912,8.952-8.688v-0.048c0-4.776-3.72-8.64-8.904-8.64
		s-8.952,3.912-8.952,8.688v0.048C255.301,75.536,259.021,79.4,264.206,79.4 M237.085,79.112h3.648v-10.68l8.136,10.68h3.144v-16.8
		h-3.648v10.344l-7.872-10.344h-3.408V79.112z"/>
</g>
<line fill="none" stroke="#000000" stroke-width="2" x1="232.191" y1="311.288" x2="296.809" y2="361.772"/>
<polygon fill="#25408F" points="407.938,36.139 406.158,48.417 408.05,50.72 409.607,52.835 411.277,50.776 413.059,48.438 
	411.223,36.195 409.608,26.678 "/>
<polygon fill="none" stroke="#25408F" points="407.938,69.895 406.158,57.617 408.05,55.313 409.607,53.199 411.277,55.258 
	413.059,57.596 411.223,69.839 409.608,79.355 "/>
<polygon fill="none" stroke="#25408F" points="426.486,51.347 414.208,49.566 411.905,51.458 409.79,53.016 411.85,54.687 
	414.188,56.467 426.43,54.631 435.947,53.017 "/>
<polygon fill="none" stroke="#25408F" points="392.73,51.347 405.009,49.566 407.312,51.458 409.427,53.016 407.367,54.687 
	405.029,56.467 392.787,54.631 383.27,53.017 "/>
<line fill="none" stroke="#000000" stroke-width="2" x1="489.252" y1="370.466" x2="566.967" y2="307.534"/>
<rect x="266.5" y="146.5" fill="#9ACBE2" width="259" height="84"/>
<rect x="266.5" y="146.5" fill="none" stroke="#007AA9" stroke-width="4" width="259" height="84"/>
<rect x="135.209" y="272.681" fill="#F4D2AD" width="99.582" height="75.639"/>
<rect x="135.209" y="272.681" fill="none" stroke="#DC831A" stroke-width="3.66" width="99.582" height="75.639"/>
<rect x="560.708" y="272.681" fill="#F4D2AD" width="99.583" height="75.639"/>
<rect x="560.708" y="272.681" fill="none" stroke="#DC831A" stroke-width="3.66" width="99.583" height="75.639"/>
<line fill="none" stroke="#000000" stroke-width="2" x1="331.72" y1="401.099" x2="245.157" y2="473.733"/>
<line fill="none" stroke="#000000" stroke-width="2" x1="467.222" y1="402.884" x2="553.785" y2="475.519"/>
<line fill="none" stroke="#000000" stroke-width="2" x1="398.499" y1="397.001" x2="398.499" y2="475.001"/>
<rect x="294.5" y="359" fill="#F4D2AD" width="203" height="45.6"/>
<rect x="294.5" y="359" fill="none" stroke="#DC831A" stroke-width="3" width="203" height="45.6"/>
<rect x="99" y="472" fill="#C7806B" width="172" height="61.999"/>
<rect x="99" y="472" fill="none" stroke="#9E161A" stroke-width="4" width="172" height="61.999"/>
<rect x="309" y="472" fill="#F4E891" width="172" height="61.999"/>
<rect x="309" y="472" fill="none" stroke="#E9D800" stroke-width="3" width="172" height="61.999"/>
<rect x="520" y="472" fill="#82A57B" width="172" height="61.999"/>
<rect x="520" y="472" fill="none" stroke="#176928" stroke-width="4" width="172" height="61.999"/>
<line fill="none" stroke="#000000" stroke-width="2" x1="394.499" y1="231.5" x2="394.499" y2="257.5"/>
<g>
	<defs>
		<rect id="SVGID_3_" width="792" height="612"/>
	</defs>
	<clipPath id="SVGID_4_">
		<use xlink:href="#SVGID_3_"  overflow="visible"/>
	</clipPath>
	<path clip-path="url(#SVGID_4_)" d="M462.437,195.404c-1.152,0-2.245-0.959-2.245-2.399v-0.024c0-1.418,1.093-2.39,2.245-2.39
		c1.177,0,2.185,0.936,2.185,2.401v0.024C464.621,194.516,463.637,195.404,462.437,195.404 M459.305,198.019h0.923v-3.107
		c0.48,0.696,1.225,1.319,2.377,1.319c1.5,0,2.963-1.199,2.963-3.227v-0.024c0-2.041-1.475-3.215-2.963-3.215
		c-1.141,0-1.873,0.634-2.377,1.378v-1.246h-0.923V198.019z M456.232,196.099h0.922v-6.203h-0.922V196.099z M456.173,188.539h1.055
		v-1.019h-1.055V188.539z M448.757,196.099h0.923v-3.552c0-1.164,0.792-1.944,1.861-1.944c1.092,0,1.716,0.72,1.716,1.872v3.624
		h0.923v-3.852c0-1.476-0.875-2.482-2.375-2.482c-1.069,0-1.717,0.539-2.125,1.21v-3.634h-0.923V196.099z M444.833,196.219
		c1.236,0,2.207-0.683,2.207-1.859v-0.024c0-1.116-1.03-1.488-1.991-1.776c-0.828-0.252-1.597-0.481-1.597-1.069v-0.024
		c0-0.516,0.468-0.9,1.2-0.9c0.601,0,1.262,0.228,1.836,0.6l0.42-0.696c-0.636-0.419-1.476-0.682-2.231-0.682
		c-1.225,0-2.111,0.706-2.111,1.774v0.024c0,1.141,1.078,1.477,2.052,1.753c0.815,0.228,1.549,0.468,1.549,1.092v0.024
		c0,0.6-0.541,0.985-1.285,0.985c-0.732,0-1.478-0.289-2.148-0.793l-0.467,0.66C442.961,195.872,443.943,196.219,444.833,196.219
		 M435.39,196.099h0.922v-3.552c0-1.164,0.792-1.944,1.861-1.944c1.092,0,1.717,0.72,1.717,1.872v3.624h0.922v-3.852
		c0-1.476-0.874-2.482-2.375-2.482c-1.067,0-1.717,0.539-2.125,1.21v-1.078h-0.922V196.099z M426.701,196.146h0.815l1.681-4.895
		l1.668,4.895h0.804l2.183-6.25h-0.96l-1.631,4.98l-1.68-5.004h-0.769l-1.668,5.004l-1.631-4.98h-0.984L426.701,196.146z
		 M420.461,195.416c-1.309,0-2.293-1.08-2.293-2.412v-0.024c0-1.309,0.925-2.401,2.269-2.401c1.309,0,2.306,1.092,2.306,2.425v0.024
		C422.742,194.335,421.805,195.416,420.461,195.416 M420.437,196.243c1.873,0,3.251-1.487,3.251-3.239v-0.024
		c0-1.753-1.365-3.215-3.227-3.215c-1.873,0-3.239,1.486-3.239,3.239v0.024C417.222,194.78,418.576,196.243,420.437,196.243
		 M413.729,196.099h0.958v-7.524h2.82v-0.874h-6.598v0.874h2.819V196.099z M402.894,196.099h0.922v-2.472
		c0-1.872,1.104-2.844,2.46-2.844h0.072v-0.994c-1.176-0.049-2.076,0.694-2.532,1.726v-1.618h-0.922V196.099z M397.973,195.489
		c-0.84,0-1.561-0.457-1.561-1.237v-0.024c0-0.745,0.662-1.249,1.813-1.249c0.757,0,1.357,0.132,1.813,0.264v0.577
		C400.038,194.804,399.113,195.489,397.973,195.489 M397.793,196.23c1.093,0,1.801-0.503,2.232-1.055v0.923h0.911v-3.791
		c0-0.792-0.216-1.393-0.646-1.825c-0.444-0.443-1.128-0.683-2.005-0.683c-0.912,0-1.572,0.216-2.256,0.528l0.276,0.755
		c0.576-0.264,1.152-0.444,1.884-0.444c1.165,0,1.837,0.577,1.837,1.681v0.192c-0.552-0.156-1.104-0.264-1.896-0.264
		c-1.572,0-2.651,0.695-2.651,2.027v0.024C395.478,195.572,396.629,196.23,397.793,196.23 M393.173,196.207
		c0.444,0,0.792-0.096,1.116-0.264v-0.791c-0.324,0.156-0.588,0.217-0.9,0.217c-0.624,0-1.044-0.277-1.044-1.033v-3.625h1.968
		v-0.814h-1.968v-1.873h-0.923v1.873h-0.864v0.814h0.864v3.745C391.422,195.716,392.177,196.207,393.173,196.207 M386.513,196.219
		c1.669,0,2.867-0.935,2.867-2.375v-0.024c0-1.284-0.862-1.968-2.735-2.376c-1.848-0.396-2.281-0.84-2.281-1.633v-0.024
		c0-0.756,0.697-1.356,1.789-1.356c0.864,0,1.645,0.276,2.425,0.912l0.551-0.732c-0.851-0.683-1.727-1.031-2.952-1.031
		c-1.596,0-2.759,0.971-2.759,2.291v0.024c0,1.381,0.887,2.005,2.819,2.425c1.765,0.372,2.185,0.816,2.185,1.596v0.024
		c0,0.828-0.744,1.429-1.873,1.429c-1.164,0-2.004-0.397-2.879-1.189l-0.588,0.696C384.089,195.775,385.181,196.219,386.513,196.219
		 M372.486,196.099h0.923v-3.552c0-1.164,0.792-1.944,1.86-1.944c1.093,0,1.717,0.72,1.717,1.872v3.624h0.923v-3.852
		c0-1.476-0.875-2.482-2.375-2.482c-1.069,0-1.717,0.539-2.125,1.21v-3.634h-0.923V196.099z M369.713,196.207
		c0.444,0,0.792-0.096,1.116-0.264v-0.791c-0.324,0.156-0.588,0.217-0.9,0.217c-0.624,0-1.044-0.277-1.044-1.033v-3.625h1.968
		v-0.814h-1.968v-1.873h-0.923v1.873h-0.864v0.814h0.864v3.745C367.962,195.716,368.717,196.207,369.713,196.207 M362.778,196.099
		h0.923v-2.472c0-1.872,1.104-2.844,2.46-2.844h0.072v-0.994c-1.176-0.049-2.076,0.694-2.532,1.726v-1.618h-0.923V196.099z
		 M357.882,195.416c-1.309,0-2.293-1.08-2.293-2.412v-0.024c0-1.309,0.924-2.401,2.269-2.401c1.308,0,2.304,1.092,2.304,2.425v0.024
		C360.162,194.335,359.226,195.416,357.882,195.416 M357.858,196.243c1.872,0,3.251-1.487,3.251-3.239v-0.024
		c0-1.753-1.367-3.215-3.227-3.215c-1.873,0-3.24,1.486-3.24,3.239v0.024C354.642,194.78,355.997,196.243,357.858,196.243
		 M345.702,196.099h0.923v-6.887l5.425,6.887h0.755v-8.398h-0.923v6.73l-5.293-6.73h-0.887V196.099z M337.891,196.099h0.922v-5.4
		h1.956v-0.778h-1.968v-0.505c0-0.889,0.36-1.321,1.08-1.321c0.312,0,0.564,0.06,0.9,0.156v-0.803
		c-0.3-0.108-0.588-0.156-1.02-0.156c-0.564,0-1.02,0.168-1.331,0.48c-0.348,0.347-0.539,0.884-0.539,1.588v0.537h-0.852v0.802
		h0.852V196.099z M332.646,195.416c-1.308,0-2.293-1.08-2.293-2.412v-0.024c0-1.309,0.925-2.401,2.269-2.401
		c1.308,0,2.305,1.092,2.305,2.425v0.024C334.927,194.335,333.99,195.416,332.646,195.416 M332.622,196.243
		c1.873,0,3.251-1.487,3.251-3.239v-0.024c0-1.753-1.366-3.215-3.227-3.215c-1.873,0-3.239,1.486-3.239,3.239v0.024
		C329.407,194.78,330.761,196.243,332.622,196.243"/>
	<path clip-path="url(#SVGID_4_)" d="M466.91,181.838c1.624,0,2.869-0.755,2.869-2.421v-0.028c0-1.372-1.217-1.876-2.267-2.226
		c-0.813-0.281-1.527-0.477-1.527-0.897v-0.028c0-0.294,0.266-0.518,0.784-0.518c0.547,0,1.289,0.266,2.03,0.7l0.812-1.469
		c-0.812-0.546-1.847-0.867-2.799-0.867c-1.513,0-2.743,0.853-2.743,2.378v0.028c0,1.457,1.188,1.947,2.237,2.255
		c0.827,0.252,1.557,0.406,1.557,0.869v0.028c0,0.336-0.28,0.56-0.897,0.56c-0.701,0-1.554-0.308-2.366-0.897l-0.908,1.4
		C464.684,181.488,465.859,181.838,466.91,181.838 M458.427,181.698h2.126v-2.771c0-1.793,0.868-2.647,2.282-2.647h0.112v-2.224
		c-1.26-0.056-1.96,0.615-2.395,1.65v-1.51h-2.126V181.698z M451.567,177.36c0.167-0.967,0.74-1.598,1.623-1.598
		c0.896,0,1.457,0.645,1.583,1.598H451.567z M453.4,181.867c1.357,0,2.365-0.531,3.064-1.399l-1.217-1.078
		c-0.588,0.546-1.106,0.771-1.82,0.771c-0.952,0-1.624-0.505-1.833-1.472h5.221c0.014-0.196,0.027-0.391,0.027-0.559
		c0-2.129-1.146-4.073-3.651-4.073c-2.185,0-3.71,1.762-3.71,3.905v0.028C449.481,180.287,451.147,181.867,453.4,181.867
		 M443.657,183.98c1.272,0,1.889-0.573,2.463-2.098l2.883-7.686h-2.211l-1.638,5.11l-1.707-5.11h-2.254l2.938,7.532
		c-0.181,0.378-0.377,0.49-0.741,0.49c-0.279,0-0.63-0.126-0.909-0.294l-0.715,1.539C442.313,183.785,442.887,183.98,443.657,183.98
		 M436.628,180.371c-0.686,0-1.163-0.337-1.163-0.911v-0.028c0-0.673,0.562-1.037,1.471-1.037c0.52,0,0.995,0.112,1.359,0.28v0.379
		C438.295,179.823,437.623,180.371,436.628,180.371 M435.984,181.838c1.035,0,1.751-0.378,2.269-0.951v0.811h2.056v-4.353
		c0-1.008-0.251-1.835-0.811-2.394c-0.532-0.532-1.371-0.839-2.534-0.839c-1.274,0-2.086,0.238-2.911,0.601l0.531,1.624
		c0.685-0.253,1.26-0.407,2.072-0.407c1.064,0,1.61,0.491,1.61,1.373v0.126c-0.531-0.181-1.079-0.307-1.835-0.307
		c-1.777,0-3.022,0.755-3.022,2.393v0.028C433.409,181.027,434.57,181.838,435.984,181.838 M428.326,180.035
		c-0.994,0-1.82-0.827-1.82-2.073v-0.028c0-1.247,0.826-2.073,1.82-2.073c0.995,0,1.835,0.826,1.835,2.073v0.028
		C430.161,179.222,429.321,180.035,428.326,180.035 M424.407,183.938h2.126v-3.219c0.505,0.602,1.205,1.119,2.34,1.119
		c1.778,0,3.414-1.371,3.414-3.877v-0.028c0-2.507-1.664-3.877-3.414-3.877c-1.107,0-1.821,0.517-2.34,1.217v-1.077h-2.126V183.938z
		 M420.85,181.698h2.281l-2.645-3.835l2.533-3.667h-2.226l-1.414,2.197l-1.398-2.197h-2.282l2.534,3.695l-2.633,3.807h2.227
		l1.511-2.337L420.85,181.698z M410.714,180.371c-0.686,0-1.162-0.337-1.162-0.911v-0.028c0-0.673,0.561-1.037,1.471-1.037
		c0.519,0,0.994,0.112,1.358,0.28v0.379C412.381,179.823,411.709,180.371,410.714,180.371 M410.07,181.838
		c1.037,0,1.751-0.378,2.269-0.951v0.811h2.058v-4.353c0-1.008-0.253-1.835-0.813-2.394c-0.531-0.532-1.371-0.839-2.534-0.839
		c-1.273,0-2.086,0.238-2.911,0.601l0.531,1.624c0.687-0.253,1.26-0.407,2.072-0.407c1.064,0,1.61,0.491,1.61,1.373v0.126
		c-0.531-0.181-1.077-0.307-1.835-0.307c-1.777,0-3.022,0.755-3.022,2.393v0.028C407.495,181.027,408.656,181.838,410.07,181.838
		 M402.847,181.698h2.155v-7.812h2.982V171.9h-8.119v1.986h2.981V181.698z M389.463,180.077c-0.799,0-1.373-0.462-1.373-1.149
		v-0.028c0-0.476,0.266-0.952,0.91-1.288l1.877,1.905C390.429,179.867,389.953,180.077,389.463,180.077 M389.686,175.651
		c-0.406-0.463-0.574-0.785-0.574-1.219v-0.028c0-0.588,0.378-0.994,0.953-0.994c0.546,0,0.924,0.35,0.924,0.91v0.028
		C390.989,174.964,390.541,175.33,389.686,175.651 M393.214,181.895l1.582-1.105l-1.442-1.441c0.49-0.659,0.91-1.387,1.288-2.073
		l-1.582-0.868c-0.308,0.602-0.63,1.176-0.952,1.68l-1.301-1.302c1.218-0.476,2.057-1.246,2.057-2.563v-0.028
		c0-1.371-1.091-2.462-2.757-2.462c-1.89,0-2.968,1.23-2.968,2.574v0.028c0,0.672,0.21,1.289,0.686,1.961
		c-1.232,0.56-1.904,1.442-1.904,2.688v0.028c0,1.736,1.413,2.827,3.289,2.827c1.135,0,2.073-0.434,2.87-1.091L393.214,181.895z
		 M377.801,181.838c1.624,0,2.869-0.755,2.869-2.421v-0.028c0-1.372-1.217-1.876-2.267-2.226c-0.812-0.281-1.527-0.477-1.527-0.897
		v-0.028c0-0.294,0.266-0.518,0.785-0.518c0.546,0,1.289,0.266,2.03,0.7l0.811-1.469c-0.811-0.546-1.846-0.867-2.799-0.867
		c-1.512,0-2.743,0.853-2.743,2.378v0.028c0,1.457,1.189,1.947,2.238,2.255c0.827,0.252,1.556,0.406,1.556,0.869v0.028
		c0,0.336-0.281,0.56-0.897,0.56c-0.701,0-1.555-0.308-2.366-0.897l-0.909,1.4C375.575,181.488,376.75,181.838,377.801,181.838
		 M366.448,181.698h2.126v-4.186c0-1.008,0.518-1.526,1.331-1.526s1.289,0.518,1.289,1.526v4.186h2.126v-4.858
		c0-1.721-0.937-2.784-2.546-2.784c-1.079,0-1.71,0.573-2.2,1.203v-1.063h-2.126V181.698z M359.587,177.36
		c0.168-0.967,0.742-1.598,1.624-1.598c0.897,0,1.457,0.645,1.583,1.598H359.587z M361.421,181.867c1.358,0,2.365-0.531,3.065-1.399
		l-1.217-1.078c-0.588,0.546-1.106,0.771-1.82,0.771c-0.952,0-1.624-0.505-1.834-1.472h5.221c0.014-0.196,0.028-0.391,0.028-0.559
		c0-2.129-1.147-4.073-3.652-4.073c-2.184,0-3.71,1.762-3.71,3.905v0.028C357.502,180.287,359.168,181.867,361.421,181.867
		 M349.942,181.698h6.522v-1.72h-3.891l3.891-4.286v-1.496h-6.396v1.72h3.751l-3.877,4.286V181.698z M346.064,181.698h2.126v-7.502
		h-2.126V181.698z M346.008,173.369h2.238v-1.888h-2.238V173.369z M342.689,181.825c0.714,0,1.232-0.168,1.68-0.434v-1.706
		c-0.308,0.168-0.658,0.266-1.05,0.266c-0.476,0-0.686-0.238-0.686-0.729v-3.207h1.764v-1.818h-1.764v-1.918h-2.127v1.918h-0.896
		v1.818h0.896v3.558C340.506,181.307,341.388,181.825,342.689,181.825 M336.027,181.698h2.126v-7.502h-2.126V181.698z
		 M335.971,173.369h2.238v-1.888h-2.238V173.369z M330.411,181.867c1.89,0,3.01-0.671,4.018-1.748l-1.372-1.387
		c-0.77,0.701-1.456,1.149-2.576,1.149c-1.68,0-2.842-1.401-2.842-3.081v-0.028c0-1.681,1.19-3.053,2.842-3.053
		c0.98,0,1.75,0.42,2.506,1.106l1.372-1.582c-0.91-0.895-2.016-1.51-3.864-1.51c-3.01,0-5.108,2.28-5.108,5.067v0.028
		C325.387,179.643,327.527,181.867,330.411,181.867"/>
	<path clip-path="url(#SVGID_4_)" d="M193.69,318.499h1.823v-1.956l0.636-0.671l1.68,2.627h2.088l-2.532-3.899l2.448-2.53h-2.184
		l-2.136,2.339v-4.667h-1.823V318.499z M188.674,318.499h1.823v-2.375c0-1.537,0.744-2.269,1.956-2.269h0.096v-1.906
		c-1.08-0.048-1.68,0.527-2.052,1.414v-1.294h-1.823V318.499z M182.794,314.781c0.144-0.829,0.636-1.37,1.391-1.37
		c0.769,0,1.249,0.553,1.357,1.37H182.794z M184.366,318.644c1.164,0,2.028-0.456,2.628-1.199l-1.044-0.924
		c-0.504,0.468-0.948,0.66-1.56,0.66c-0.815,0-1.391-0.433-1.571-1.262h4.475c0.012-0.168,0.024-0.336,0.024-0.479
		c0-1.825-0.983-3.491-3.131-3.491c-1.872,0-3.18,1.51-3.18,3.347v0.024C181.006,317.288,182.435,318.644,184.366,318.644
		 M177.778,318.499h1.822v-8.76h-1.822V318.499z M172.965,318.644c1.62,0,2.58-0.575,3.444-1.499l-1.176-1.188
		c-0.66,0.6-1.248,0.985-2.208,0.985c-1.44,0-2.436-1.201-2.436-2.642v-0.023c0-1.441,1.02-2.617,2.436-2.617
		c0.84,0,1.5,0.36,2.148,0.948l1.176-1.356c-0.78-0.767-1.728-1.294-3.312-1.294c-2.58,0-4.379,1.954-4.379,4.343v0.024
		C168.659,316.736,170.494,318.644,172.965,318.644"/>
	<path clip-path="url(#SVGID_4_)" d="M208.684,302.673c-0.853,0-1.561-0.709-1.561-1.777v-0.024c0-1.069,0.708-1.777,1.561-1.777
		c0.852,0,1.572,0.708,1.572,1.777v0.024C210.256,301.976,209.536,302.673,208.684,302.673 M205.324,306.019h1.823v-2.759
		c0.432,0.515,1.032,0.959,2.005,0.959c1.524,0,2.927-1.175,2.927-3.323v-0.024c0-2.149-1.427-3.323-2.927-3.323
		c-0.949,0-1.561,0.443-2.005,1.042v-0.922h-1.823V306.019z M201.784,304.099h1.822v-6.43h-1.822V304.099z M201.736,296.959h1.919
		v-1.618h-1.919V296.959z M194.225,304.099h1.822v-3.588c0-0.864,0.444-1.308,1.141-1.308c0.696,0,1.105,0.444,1.105,1.308v3.588
		h1.822v-4.164c0-1.475-0.803-2.386-2.183-2.386c-0.924,0-1.465,0.491-1.885,1.031v-3.239h-1.822V304.099z M190.456,304.219
		c1.392,0,2.459-0.647,2.459-2.075v-0.024c0-1.176-1.043-1.608-1.943-1.909c-0.696-0.24-1.309-0.408-1.309-0.768v-0.024
		c0-0.252,0.228-0.444,0.673-0.444c0.468,0,1.104,0.228,1.74,0.6l0.695-1.259c-0.695-0.468-1.582-0.743-2.399-0.743
		c-1.296,0-2.351,0.731-2.351,2.038v0.024c0,1.249,1.019,1.669,1.918,1.933c0.709,0.216,1.334,0.348,1.334,0.744v0.024
		c0,0.288-0.241,0.48-0.769,0.48c-0.601,0-1.332-0.264-2.028-0.768l-0.779,1.2C188.548,303.919,189.555,304.219,190.456,304.219
		 M180.725,304.099h1.822v-3.588c0-0.864,0.445-1.308,1.141-1.308c0.697,0,1.105,0.444,1.105,1.308v3.588h1.822v-4.164
		c0-1.475-0.803-2.386-2.182-2.386c-0.925,0-1.465,0.491-1.886,1.031v-0.911h-1.822V304.099z M171.845,304.147h1.631l1.26-3.947
		l1.236,3.947h1.644l2.003-6.478h-1.811l-1.056,3.911l-1.224-3.935h-1.572l-1.212,3.923l-1.031-3.899h-1.848L171.845,304.147z
		 M165.904,302.673c-1.008,0-1.693-0.829-1.693-1.777v-0.024c0-0.949,0.625-1.753,1.669-1.753c1.009,0,1.693,0.828,1.693,1.777
		v0.024C167.573,301.868,166.949,302.673,165.904,302.673 M165.88,304.243c2.005,0,3.491-1.499,3.491-3.347v-0.024
		c0-1.849-1.474-3.323-3.467-3.323c-2.004,0-3.491,1.498-3.491,3.347v0.024C162.413,302.768,163.888,304.243,165.88,304.243
		 M158.357,304.099h1.846v-6.696h2.556v-1.702h-6.958v1.702h2.556V304.099z"/>
	<path clip-path="url(#SVGID_4_)" d="M634.83,318.499h1.822v-2.375c0-1.537,0.744-2.269,1.956-2.269h0.096v-1.907
		c-1.08-0.048-1.68,0.528-2.052,1.415v-1.295h-1.822V318.499z M628.949,314.78c0.144-0.828,0.636-1.369,1.392-1.369
		c0.77,0,1.249,0.553,1.357,1.369H628.949z M630.521,318.644c1.162,0,2.026-0.456,2.627-1.199l-1.045-0.924
		c-0.503,0.468-0.946,0.659-1.559,0.659c-0.816,0-1.392-0.432-1.572-1.261h4.476c0.012-0.168,0.023-0.336,0.023-0.479
		c0-1.825-0.982-3.492-3.13-3.492c-1.872,0-3.18,1.511-3.18,3.348v0.024C627.162,317.288,628.589,318.644,630.521,318.644
		 M622.638,318.499h1.822v-2.375c0-1.537,0.744-2.269,1.956-2.269h0.096v-1.907c-1.08-0.048-1.68,0.528-2.052,1.415v-1.295h-1.822
		V318.499z M617.297,318.619c0.924,0,1.465-0.492,1.885-1.031v0.911h1.822v-6.431h-1.822v3.589c0,0.863-0.443,1.307-1.141,1.307
		c-0.696,0-1.105-0.443-1.105-1.307v-3.589h-1.821v4.164C615.114,317.708,615.917,318.619,617.297,318.619 M611.393,318.619
		c1.393,0,2.459-0.647,2.459-2.075v-0.023c0-1.177-1.043-1.608-1.941-1.909c-0.697-0.24-1.311-0.408-1.311-0.769v-0.023
		c0-0.252,0.229-0.444,0.674-0.444c0.468,0,1.104,0.229,1.739,0.601l0.695-1.26c-0.695-0.468-1.582-0.744-2.399-0.744
		c-1.296,0-2.351,0.732-2.351,2.039v0.024c0,1.249,1.019,1.669,1.919,1.933c0.708,0.217,1.333,0.349,1.333,0.744v0.024
		c0,0.288-0.24,0.479-0.769,0.479c-0.601,0-1.332-0.264-2.028-0.768l-0.779,1.2C609.485,318.319,610.492,318.619,611.393,318.619
		 M604.409,317.36c-0.588,0-0.997-0.288-0.997-0.78v-0.024c0-0.576,0.48-0.889,1.261-0.889c0.444,0,0.854,0.096,1.165,0.24v0.324
		C605.838,316.893,605.262,317.36,604.409,317.36 M603.857,318.619c0.888,0,1.501-0.324,1.944-0.815v0.695h1.763v-3.73
		c0-0.864-0.216-1.573-0.695-2.053c-0.456-0.456-1.175-0.72-2.172-0.72c-1.094,0-1.788,0.204-2.496,0.516l0.456,1.393
		c0.587-0.217,1.08-0.35,1.775-0.35c0.913,0,1.382,0.422,1.382,1.178v0.107c-0.456-0.155-0.926-0.264-1.573-0.264
		c-1.524,0-2.591,0.648-2.591,2.052v0.024C601.65,317.924,602.645,318.619,603.857,318.619 M596.154,314.78
		c0.143-0.828,0.635-1.369,1.391-1.369c0.77,0,1.249,0.553,1.357,1.369H596.154z M597.725,318.644c1.164,0,2.028-0.456,2.628-1.199
		l-1.044-0.924c-0.504,0.468-0.947,0.659-1.56,0.659c-0.816,0-1.392-0.432-1.571-1.261h4.476c0.011-0.168,0.022-0.336,0.022-0.479
		c0-1.825-0.982-3.492-3.13-3.492c-1.872,0-3.18,1.511-3.18,3.348v0.024C594.366,317.288,595.794,318.644,597.725,318.644
		 M589.842,318.499h1.822v-2.375c0-1.537,0.744-2.269,1.956-2.269h0.096v-1.907c-1.08-0.048-1.68,0.528-2.052,1.415v-1.295h-1.822
		V318.499z M584.934,318.499h1.847v-6.696h2.557v-1.701h-6.959v1.701h2.556V318.499z"/>
	<path clip-path="url(#SVGID_4_)" d="M635.184,302.673c-0.854,0-1.562-0.709-1.562-1.777v-0.024c0-1.069,0.708-1.777,1.562-1.777
		c0.852,0,1.571,0.708,1.571,1.777v0.024C636.755,301.976,636.035,302.673,635.184,302.673 M631.823,306.019h1.823v-2.759
		c0.432,0.515,1.031,0.959,2.005,0.959c1.523,0,2.927-1.175,2.927-3.323v-0.024c0-2.149-1.427-3.323-2.927-3.323
		c-0.949,0-1.562,0.443-2.005,1.042v-0.922h-1.823V306.019z M628.283,304.099h1.823v-6.43h-1.823V304.099z M628.235,296.959h1.919
		v-1.618h-1.919V296.959z M620.725,304.099h1.821v-3.588c0-0.864,0.444-1.308,1.142-1.308c0.695,0,1.104,0.444,1.104,1.308v3.588
		h1.822v-4.164c0-1.475-0.803-2.386-2.183-2.386c-0.925,0-1.466,0.491-1.886,1.031v-3.239h-1.821V304.099z M616.955,304.219
		c1.393,0,2.459-0.647,2.459-2.075v-0.024c0-1.176-1.043-1.608-1.943-1.909c-0.695-0.24-1.309-0.408-1.309-0.768v-0.024
		c0-0.252,0.229-0.444,0.673-0.444c0.468,0,1.104,0.228,1.74,0.6l0.695-1.259c-0.695-0.468-1.582-0.743-2.399-0.743
		c-1.296,0-2.351,0.731-2.351,2.038v0.024c0,1.249,1.019,1.669,1.918,1.933c0.709,0.216,1.334,0.348,1.334,0.744v0.024
		c0,0.288-0.241,0.48-0.77,0.48c-0.601,0-1.332-0.264-2.027-0.768l-0.779,1.2C615.047,303.919,616.055,304.219,616.955,304.219
		 M607.225,304.099h1.821v-3.588c0-0.864,0.445-1.308,1.142-1.308s1.104,0.444,1.104,1.308v3.588h1.822v-4.164
		c0-1.475-0.803-2.386-2.182-2.386c-0.926,0-1.466,0.491-1.887,1.031v-0.911h-1.821V304.099z M598.344,304.147h1.632l1.26-3.947
		l1.235,3.947h1.645l2.003-6.478h-1.811l-1.057,3.911l-1.224-3.935h-1.572l-1.212,3.923l-1.031-3.899h-1.848L598.344,304.147z
		 M592.403,302.673c-1.008,0-1.693-0.829-1.693-1.777v-0.024c0-0.949,0.625-1.753,1.669-1.753c1.01,0,1.693,0.828,1.693,1.777v0.024
		C594.072,301.868,593.448,302.673,592.403,302.673 M592.379,304.243c2.005,0,3.491-1.499,3.491-3.347v-0.024
		c0-1.849-1.474-3.323-3.467-3.323c-2.004,0-3.491,1.498-3.491,3.347v0.024C588.912,302.768,590.387,304.243,592.379,304.243
		 M584.856,304.099h1.846v-6.696h2.557v-1.702H582.3v1.702h2.557V304.099z"/>
	<path clip-path="url(#SVGID_4_)" d="M487.438,384.219c1.393,0,2.46-0.647,2.46-2.075v-0.024c0-1.176-1.044-1.607-1.943-1.908
		c-0.697-0.24-1.309-0.408-1.309-0.769v-0.023c0-0.252,0.228-0.444,0.672-0.444c0.469,0,1.104,0.228,1.74,0.6l0.695-1.259
		c-0.695-0.468-1.583-0.744-2.399-0.744c-1.296,0-2.352,0.732-2.352,2.039v0.024c0,1.249,1.02,1.669,1.919,1.933
		c0.708,0.216,1.333,0.349,1.333,0.744v0.024c0,0.288-0.239,0.479-0.769,0.479c-0.601,0-1.332-0.264-2.027-0.768l-0.78,1.2
		C485.531,383.919,486.538,384.219,487.438,384.219 M480.167,384.099h1.823v-2.375c0-1.537,0.744-2.269,1.956-2.269h0.096v-1.907
		c-1.08-0.047-1.68,0.527-2.052,1.415v-1.294h-1.823V384.099z M475.378,382.673c-1.008,0-1.691-0.829-1.691-1.777v-0.023
		c0-0.949,0.624-1.754,1.668-1.754c1.009,0,1.692,0.828,1.692,1.777v0.024C477.047,381.867,476.423,382.673,475.378,382.673
		 M475.354,384.242c2.005,0,3.491-1.499,3.491-3.347v-0.023c0-1.85-1.475-3.324-3.468-3.324c-2.004,0-3.491,1.499-3.491,3.348v0.024
		C471.887,382.768,473.362,384.242,475.354,384.242 M468.43,384.219c1.394,0,2.461-0.647,2.461-2.075v-0.024
		c0-1.176-1.043-1.607-1.943-1.908c-0.697-0.24-1.309-0.408-1.309-0.769v-0.023c0-0.252,0.228-0.444,0.672-0.444
		c0.469,0,1.104,0.228,1.74,0.6l0.695-1.259c-0.695-0.468-1.583-0.744-2.4-0.744c-1.296,0-2.351,0.732-2.351,2.039v0.024
		c0,1.249,1.02,1.669,1.919,1.933c0.709,0.216,1.333,0.349,1.333,0.744v0.024c0,0.288-0.24,0.479-0.769,0.479
		c-0.601,0-1.332-0.264-2.027-0.768l-0.78,1.2C466.523,383.919,467.53,384.219,468.43,384.219 M462.635,384.099h1.822v-6.43h-1.822
		V384.099z M462.587,376.959h1.919v-1.618h-1.919V376.959z M457.308,384.146h1.655l2.531-6.478h-1.896l-1.451,4.306l-1.44-4.306
		h-1.932L457.308,384.146z M450.336,384.099h1.822v-2.375c0-1.537,0.744-2.269,1.956-2.269h0.096v-1.907
		c-1.08-0.047-1.68,0.527-2.052,1.415v-1.294h-1.822V384.099z M444.455,380.38c0.145-0.828,0.636-1.369,1.393-1.369
		c0.769,0,1.248,0.553,1.356,1.369H444.455z M446.027,384.242c1.164,0,2.026-0.456,2.627-1.198l-1.044-0.925
		c-0.503,0.469-0.947,0.661-1.56,0.661c-0.815,0-1.392-0.433-1.571-1.262h4.475c0.012-0.168,0.024-0.336,0.024-0.479
		c0-1.825-0.983-3.492-3.13-3.492c-1.872,0-3.181,1.511-3.181,3.348v0.024C442.668,382.888,444.095,384.242,446.027,384.242
		 M438.239,382.673c-0.853,0-1.562-0.709-1.562-1.777v-0.023c0-1.069,0.709-1.777,1.562-1.777c0.852,0,1.573,0.708,1.573,1.777
		v0.023C439.813,381.976,439.091,382.673,438.239,382.673 M434.88,386.019h1.822v-2.759c0.432,0.515,1.033,0.959,2.005,0.959
		c1.524,0,2.927-1.175,2.927-3.323v-0.023c0-2.149-1.427-3.324-2.927-3.324c-0.948,0-1.561,0.443-2.005,1.043v-0.922h-1.822V386.019
		z M429.539,384.219c0.924,0,1.465-0.492,1.885-1.031v0.911h1.822v-6.43h-1.822v3.588c0,0.862-0.443,1.307-1.141,1.307
		c-0.696,0-1.105-0.444-1.105-1.307v-3.588h-1.821v4.163C427.356,383.308,428.159,384.219,429.539,384.219 M422.903,384.219
		c1.812,0,3.083-0.936,3.083-2.604v-0.023c0-1.464-0.959-2.076-2.663-2.521c-1.452-0.373-1.813-0.553-1.813-1.104v-0.024
		c0-0.408,0.373-0.731,1.081-0.731s1.441,0.312,2.185,0.828l0.96-1.392c-0.853-0.684-1.896-1.067-3.12-1.067
		c-1.716,0-2.939,1.008-2.939,2.53v0.024c0,1.669,1.092,2.137,2.783,2.568c1.405,0.36,1.693,0.601,1.693,1.068v0.024
		c0,0.492-0.456,0.793-1.213,0.793c-0.96,0-1.752-0.397-2.508-1.021l-1.092,1.309C420.348,383.774,421.63,384.219,422.903,384.219
		 M411.853,384.099h1.822v-4.872h1.452v-1.487h-1.476v-0.252c0-0.48,0.24-0.696,0.66-0.696c0.312,0,0.563,0.06,0.828,0.155v-1.511
		c-0.337-0.108-0.721-0.179-1.297-0.179c-0.647,0-1.139,0.167-1.475,0.503s-0.516,0.851-0.516,1.56v0.408h-0.757v1.499h0.757
		V384.099z M406.752,382.673c-1.009,0-1.692-0.829-1.692-1.777v-0.023c0-0.949,0.624-1.754,1.669-1.754
		c1.008,0,1.691,0.828,1.691,1.777v0.024C408.42,381.867,407.796,382.673,406.752,382.673 M406.729,384.242
		c2.004,0,3.49-1.499,3.49-3.347v-0.023c0-1.85-1.475-3.324-3.467-3.324c-2.005,0-3.492,1.499-3.492,3.348v0.024
		C403.26,382.768,404.735,384.242,406.729,384.242 M394.98,382.673c-0.852,0-1.573-0.709-1.573-1.777v-0.023
		c0-1.081,0.721-1.777,1.573-1.777s1.561,0.708,1.561,1.777v0.023C396.541,381.964,395.832,382.673,394.98,382.673 M394.512,384.219
		c0.948,0,1.56-0.444,2.005-1.043v0.923h1.821v-8.758h-1.821v3.167c-0.434-0.517-1.033-0.96-2.005-0.96
		c-1.524,0-2.927,1.175-2.927,3.324v0.023C391.585,383.044,393.012,384.219,394.512,384.219 M386.977,384.099h1.822v-2.375
		c0-1.537,0.744-2.269,1.956-2.269h0.096v-1.907c-1.08-0.047-1.68,0.527-2.052,1.415v-1.294h-1.822V384.099z M382.248,382.96
		c-0.589,0-0.997-0.288-0.997-0.78v-0.024c0-0.577,0.48-0.889,1.261-0.889c0.444,0,0.852,0.096,1.165,0.24v0.324
		C383.677,382.491,383.1,382.96,382.248,382.96 M381.695,384.219c0.889,0,1.501-0.324,1.946-0.815v0.695h1.762v-3.731
		c0-0.863-0.216-1.572-0.695-2.052c-0.456-0.456-1.175-0.72-2.172-0.72c-1.093,0-1.788,0.204-2.496,0.516l0.456,1.393
		c0.587-0.218,1.079-0.35,1.776-0.35c0.912,0,1.381,0.421,1.381,1.178v0.107c-0.457-0.156-0.925-0.264-1.573-0.264
		c-1.524,0-2.591,0.647-2.591,2.052v0.024C379.489,383.523,380.484,384.219,381.695,384.219 M375.084,382.673
		c-1.008,0-1.693-0.829-1.693-1.777v-0.023c0-0.949,0.625-1.754,1.669-1.754c1.009,0,1.693,0.828,1.693,1.777v0.024
		C376.753,381.867,376.129,382.673,375.084,382.673 M375.06,384.242c2.005,0,3.491-1.499,3.491-3.347v-0.023
		c0-1.85-1.474-3.324-3.467-3.324c-2.004,0-3.491,1.499-3.491,3.348v0.024C371.593,382.768,373.068,384.242,375.06,384.242
		 M365.232,382.48v-1.85h2.137c0.948,0,1.368,0.348,1.368,0.913v0.023c0,0.624-0.492,0.913-1.309,0.913H365.232z M365.232,379.096
		v-1.777h1.824c0.781,0,1.213,0.313,1.213,0.865v0.024c0,0.624-0.516,0.888-1.333,0.888H365.232z M363.433,384.099h3.995
		c1.897,0,3.143-0.767,3.143-2.303v-0.024c0-1.129-0.599-1.691-1.57-2.063c0.599-0.336,1.103-0.864,1.103-1.813v-0.023
		c0-0.576-0.192-1.045-0.576-1.428c-0.48-0.479-1.235-0.743-2.195-0.743h-3.9V384.099z M354.901,382.673
		c-0.853,0-1.561-0.709-1.561-1.777v-0.023c0-1.069,0.708-1.777,1.561-1.777c0.852,0,1.572,0.708,1.572,1.777v0.023
		C356.473,381.976,355.753,382.673,354.901,382.673 M351.541,386.019h1.823v-2.759c0.432,0.515,1.032,0.959,2.005,0.959
		c1.524,0,2.927-1.175,2.927-3.323v-0.023c0-2.149-1.427-3.324-2.927-3.324c-0.949,0-1.561,0.443-2.005,1.043v-0.922h-1.823V386.019
		z M348.001,384.099h1.823v-6.43h-1.823V384.099z M347.953,376.959h1.919v-1.618h-1.919V376.959z M340.442,384.099h1.822v-3.588
		c0-0.864,0.444-1.309,1.141-1.309c0.696,0,1.105,0.444,1.105,1.309v3.588h1.822v-4.164c0-1.475-0.803-2.387-2.183-2.387
		c-0.924,0-1.465,0.492-1.885,1.032v-3.239h-1.822V384.099z M336.673,384.219c1.392,0,2.459-0.647,2.459-2.075v-0.024
		c0-1.176-1.043-1.607-1.943-1.908c-0.696-0.24-1.309-0.408-1.309-0.769v-0.023c0-0.252,0.228-0.444,0.673-0.444
		c0.468,0,1.104,0.228,1.74,0.6l0.695-1.259c-0.695-0.468-1.582-0.744-2.399-0.744c-1.296,0-2.351,0.732-2.351,2.039v0.024
		c0,1.249,1.019,1.669,1.918,1.933c0.709,0.216,1.334,0.349,1.334,0.744v0.024c0,0.288-0.241,0.479-0.769,0.479
		c-0.601,0-1.332-0.264-2.028-0.768l-0.779,1.2C334.765,383.919,335.772,384.219,336.673,384.219 M326.942,384.099h1.822v-3.588
		c0-0.864,0.445-1.309,1.141-1.309c0.697,0,1.105,0.444,1.105,1.309v3.588h1.822v-4.164c0-1.475-0.803-2.387-2.182-2.387
		c-0.925,0-1.465,0.492-1.886,1.032v-0.911h-1.822V384.099z M318.062,384.146h1.631l1.26-3.947l1.236,3.947h1.644l2.003-6.478
		h-1.811l-1.056,3.911l-1.224-3.936h-1.572l-1.212,3.923l-1.031-3.898h-1.848L318.062,384.146z M312.121,382.673
		c-1.008,0-1.693-0.829-1.693-1.777v-0.023c0-0.949,0.625-1.754,1.669-1.754c1.009,0,1.693,0.828,1.693,1.777v0.024
		C313.79,381.867,313.166,382.673,312.121,382.673 M312.097,384.242c2.005,0,3.491-1.499,3.491-3.347v-0.023
		c0-1.85-1.474-3.324-3.467-3.324c-2.004,0-3.491,1.499-3.491,3.348v0.024C308.63,382.768,310.105,384.242,312.097,384.242
		 M304.574,384.099h1.847v-6.696h2.556V375.7h-6.959v1.702h2.556V384.099z"/>
	<path clip-path="url(#SVGID_4_)" d="M212.476,506.277c2.114,0,3.597-1.091,3.597-3.036v-0.028c0-1.708-1.119-2.422-3.107-2.94
		c-1.695-0.434-2.115-0.645-2.115-1.289v-0.027c0-0.477,0.434-0.854,1.26-0.854c0.827,0,1.681,0.364,2.549,0.966l1.119-1.623
		c-0.993-0.798-2.211-1.244-3.64-1.244c-2.002,0-3.429,1.175-3.429,2.951v0.028c0,1.947,1.273,2.493,3.247,2.997
		c1.639,0.42,1.975,0.7,1.975,1.246v0.029c0,0.573-0.532,0.924-1.414,0.924c-1.121,0-2.045-0.462-2.926-1.191l-1.274,1.526
		C209.494,505.76,210.991,506.277,212.476,506.277 M196.839,506.138h2.112v-6.354l2.731,4.143h0.056l2.759-4.185v6.396h2.14v-9.798
		h-2.323l-2.576,4.143l-2.577-4.143h-2.322V506.138z M187.459,506.138h7.46v-1.916h-5.32v-2.06h4.62v-1.916h-4.62v-1.99h5.25v-1.916
		h-7.39V506.138z M178.471,507.93h1.805l6.201-12.962h-1.806L178.471,507.93z M172.954,501.8c0.168-0.967,0.742-1.598,1.624-1.598
		c0.897,0,1.457,0.645,1.583,1.598H172.954z M174.788,506.306c1.357,0,2.365-0.531,3.065-1.398l-1.218-1.078
		c-0.588,0.546-1.105,0.771-1.819,0.771c-0.952,0-1.624-0.505-1.834-1.472h5.221c0.014-0.196,0.028-0.392,0.028-0.56
		c0-2.129-1.147-4.072-3.652-4.072c-2.184,0-3.71,1.762-3.71,3.904v0.028C170.869,504.726,172.534,506.306,174.788,506.306
		 M165.591,506.138h2.126v-2.771c0-1.793,0.868-2.647,2.282-2.647h0.112v-2.224c-1.26-0.057-1.96,0.614-2.394,1.649v-1.51h-2.126
		V506.138z M161.461,506.138h2.126v-7.502h-2.126V506.138z M161.405,497.808h2.238v-1.888h-2.238V497.808z M152.403,506.138h2.154
		v-3.794h4.676v-1.958h-4.676v-2.088h5.306v-1.958h-7.46V506.138z"/>
	<path clip-path="url(#SVGID_4_)" d="M466.499,500.33c0.168-0.967,0.742-1.599,1.624-1.599c0.896,0,1.457,0.646,1.583,1.599H466.499
		z M468.333,504.836c1.358,0,2.365-0.531,3.065-1.399l-1.218-1.077c-0.588,0.546-1.105,0.771-1.819,0.771
		c-0.952,0-1.624-0.505-1.834-1.472h5.221c0.014-0.196,0.028-0.392,0.028-0.56c0-2.129-1.147-4.072-3.652-4.072
		c-2.184,0-3.71,1.762-3.71,3.904v0.028C464.414,503.256,466.079,504.836,468.333,504.836 M460.534,504.836
		c1.498,0,2.338-0.573,3.065-1.371l-1.246-1.26c-0.518,0.491-1.008,0.799-1.722,0.799c-1.162,0-1.904-0.925-1.904-2.073v-0.027
		c0-1.107,0.757-2.046,1.82-2.046c0.756,0,1.232,0.322,1.708,0.826l1.302-1.398c-0.699-0.784-1.582-1.259-2.996-1.259
		c-2.295,0-3.932,1.762-3.932,3.904v0.028C456.63,503.102,458.281,504.836,460.534,504.836 M448.272,504.668h2.126v-4.187
		c0-1.008,0.519-1.525,1.33-1.525c0.813,0,1.289,0.518,1.289,1.525v4.187h2.126v-4.858c0-1.721-0.937-2.783-2.546-2.783
		c-1.079,0-1.709,0.572-2.199,1.202v-1.063h-2.126V504.668z M442.755,503.34c-0.686,0-1.163-0.337-1.163-0.911v-0.027
		c0-0.674,0.562-1.037,1.471-1.037c0.52,0,0.995,0.111,1.359,0.279v0.379C444.422,502.793,443.75,503.34,442.755,503.34
		 M442.111,504.808c1.036,0,1.751-0.378,2.269-0.951v0.812h2.056v-4.354c0-1.008-0.251-1.835-0.811-2.394
		c-0.531-0.532-1.371-0.839-2.534-0.839c-1.273,0-2.086,0.238-2.911,0.601l0.531,1.624c0.687-0.253,1.26-0.406,2.072-0.406
		c1.064,0,1.61,0.49,1.61,1.372v0.126c-0.531-0.181-1.077-0.307-1.835-0.307c-1.777,0-3.022,0.755-3.022,2.394v0.027
		C439.536,503.997,440.697,504.808,442.111,504.808 M431.262,504.668h2.127v-4.187c0-1.008,0.519-1.525,1.331-1.525
		s1.288,0.518,1.288,1.525v4.187h2.127v-4.858c0-1.721-0.938-2.783-2.547-2.783c-1.079,0-1.709,0.572-2.199,1.202v-1.063h-2.127
		V504.668z M425.41,504.668h2.127v-2.771c0-1.793,0.868-2.646,2.282-2.646h0.111v-2.224c-1.26-0.057-1.96,0.614-2.394,1.649v-1.51
		h-2.127V504.668z M418.55,500.33c0.168-0.967,0.742-1.599,1.624-1.599c0.897,0,1.457,0.646,1.582,1.599H418.55z M420.384,504.836
		c1.357,0,2.365-0.531,3.065-1.399l-1.218-1.077c-0.589,0.546-1.106,0.771-1.819,0.771c-0.952,0-1.624-0.505-1.834-1.472h5.221
		c0.014-0.196,0.028-0.392,0.028-0.56c0-2.129-1.147-4.072-3.652-4.072c-2.184,0-3.71,1.762-3.71,3.904v0.028
		C416.465,503.256,418.13,504.836,420.384,504.836 M411.13,504.724h1.931l2.954-7.558h-2.212l-1.692,5.024l-1.681-5.024h-2.253
		L411.13,504.724z M403.682,503.004c-1.177,0-1.975-0.967-1.975-2.073v-0.027c0-1.107,0.728-2.046,1.947-2.046
		c1.176,0,1.975,0.967,1.975,2.073v0.028C405.629,502.064,404.9,503.004,403.682,503.004 M403.654,504.836
		c2.338,0,4.072-1.748,4.072-3.905v-0.027c0-2.157-1.721-3.877-4.045-3.877c-2.339,0-4.072,1.747-4.072,3.904v0.028
		C399.609,503.116,401.329,504.836,403.654,504.836 M393.938,504.836c1.793,0,3.178-0.699,4.185-1.553v-4.255h-4.255v1.859h2.171
		v1.401c-0.546,0.393-1.247,0.589-2.031,0.589c-1.736,0-2.969-1.317-2.969-3.109v-0.027c0-1.666,1.247-3.054,2.815-3.054
		c1.134,0,1.807,0.364,2.563,0.995l1.356-1.638c-1.021-0.868-2.084-1.343-3.85-1.343c-2.969,0-5.137,2.279-5.137,5.066v0.028
		C388.787,502.696,390.885,504.836,393.938,504.836 M379.266,503.004c-0.994,0-1.821-0.827-1.821-2.073v-0.027
		c0-1.247,0.827-2.073,1.821-2.073c0.995,0,1.835,0.826,1.835,2.073v0.027C381.101,502.19,380.261,503.004,379.266,503.004
		 M375.347,506.908h2.126v-3.22c0.505,0.603,1.205,1.119,2.34,1.119c1.778,0,3.414-1.371,3.414-3.877v-0.027
		c0-2.508-1.664-3.877-3.414-3.877c-1.107,0-1.821,0.517-2.34,1.217v-1.077h-2.126V506.908z M371.217,504.668h2.126v-7.502h-2.126
		V504.668z M371.161,496.338h2.238v-1.888h-2.238V496.338z M362.398,504.668h2.126v-4.187c0-1.008,0.518-1.525,1.331-1.525
		c0.812,0,1.289,0.518,1.289,1.525v4.187h2.126v-4.858c0-1.721-0.937-2.783-2.547-2.783c-1.078,0-1.709,0.572-2.199,1.202v-3.778
		h-2.126V504.668z M358.001,504.808c1.624,0,2.869-0.755,2.869-2.421v-0.027c0-1.372-1.217-1.877-2.267-2.227
		c-0.813-0.281-1.527-0.477-1.527-0.896v-0.028c0-0.294,0.266-0.519,0.785-0.519c0.546,0,1.288,0.267,2.03,0.7l0.811-1.469
		c-0.811-0.546-1.847-0.867-2.799-0.867c-1.513,0-2.743,0.854-2.743,2.378v0.028c0,1.457,1.189,1.947,2.238,2.255
		c0.827,0.252,1.556,0.406,1.556,0.869v0.028c0,0.336-0.281,0.56-0.897,0.56c-0.701,0-1.555-0.308-2.366-0.896l-0.909,1.399
		C355.775,504.458,356.95,504.808,358.001,504.808 M346.648,504.668h2.126v-4.187c0-1.008,0.518-1.525,1.331-1.525
		c0.812,0,1.289,0.518,1.289,1.525v4.187h2.126v-4.858c0-1.721-0.937-2.783-2.546-2.783c-1.079,0-1.71,0.572-2.2,1.202v-1.063
		h-2.126V504.668z M336.288,504.724h1.903l1.47-4.604l1.442,4.604h1.918l2.337-7.558h-2.114l-1.231,4.563l-1.428-4.591h-1.834
		l-1.414,4.577l-1.203-4.549h-2.156L336.288,504.724z M329.357,503.004c-1.176,0-1.975-0.967-1.975-2.073v-0.027
		c0-1.107,0.729-2.046,1.947-2.046c1.177,0,1.975,0.967,1.975,2.073v0.028C331.304,502.064,330.576,503.004,329.357,503.004
		 M329.329,504.836c2.339,0,4.073-1.748,4.073-3.905v-0.027c0-2.157-1.72-3.877-4.045-3.877c-2.338,0-4.073,1.747-4.073,3.904v0.028
		C325.284,503.116,327.005,504.836,329.329,504.836 M320.552,504.668h2.154v-7.813h2.982v-1.985h-8.118v1.985h2.982V504.668z"/>
	<path clip-path="url(#SVGID_4_)" d="M661.51,504.668h2.127v-2.771c0-1.793,0.868-2.646,2.282-2.646h0.111v-2.224
		c-1.26-0.057-1.96,0.614-2.394,1.649v-1.51h-2.127V504.668z M654.649,500.33c0.168-0.967,0.742-1.599,1.624-1.599
		c0.896,0,1.456,0.646,1.583,1.599H654.649z M656.483,504.836c1.357,0,2.365-0.531,3.065-1.399l-1.218-1.077
		c-0.589,0.546-1.106,0.771-1.819,0.771c-0.952,0-1.624-0.505-1.834-1.472h5.221c0.015-0.196,0.028-0.392,0.028-0.56
		c0-2.129-1.147-4.072-3.653-4.072c-2.183,0-3.709,1.762-3.709,3.904v0.028C652.564,503.256,654.229,504.836,656.483,504.836
		 M649.86,504.794c0.714,0,1.232-0.168,1.681-0.434v-1.706c-0.309,0.168-0.658,0.266-1.051,0.266c-0.476,0-0.686-0.238-0.686-0.729
		v-3.206h1.764v-1.818h-1.764v-1.918h-2.126v1.918h-0.896v1.818h0.896v3.558C647.679,504.276,648.56,504.794,649.86,504.794
		 M638.606,504.668h2.126v-4.187c0-1.008,0.519-1.525,1.331-1.525s1.289,0.518,1.289,1.525v4.187h2.126v-4.858
		c0-1.721-0.937-2.783-2.547-2.783c-1.078,0-1.709,0.572-2.199,1.202v-1.063h-2.126V504.668z M631.746,500.33
		c0.168-0.967,0.741-1.599,1.624-1.599c0.896,0,1.456,0.646,1.583,1.599H631.746z M633.58,504.836c1.357,0,2.364-0.531,3.064-1.399
		l-1.218-1.077c-0.587,0.546-1.105,0.771-1.819,0.771c-0.952,0-1.624-0.505-1.834-1.472h5.222c0.014-0.196,0.027-0.392,0.027-0.56
		c0-2.129-1.146-4.072-3.651-4.072c-2.185,0-3.711,1.762-3.711,3.904v0.028C629.66,503.256,631.326,504.836,633.58,504.836
		 M624.646,504.836c1.891,0,3.01-0.671,4.019-1.748l-1.372-1.387c-0.771,0.701-1.456,1.148-2.576,1.148
		c-1.68,0-2.842-1.4-2.842-3.081v-0.027c0-1.682,1.189-3.054,2.842-3.054c0.979,0,1.75,0.42,2.506,1.106l1.372-1.582
		c-0.91-0.895-2.016-1.51-3.864-1.51c-3.01,0-5.107,2.279-5.107,5.066v0.028C619.623,502.612,621.763,504.836,624.646,504.836
		 M609.794,502.29c-1.036,0-1.82-0.701-1.82-1.737v-0.027c0-1.023,0.784-1.737,1.82-1.737c1.037,0,1.835,0.714,1.835,1.737v0.027
		C611.629,501.575,610.831,502.29,609.794,502.29 M609.542,506.936c1.457,0,2.534-0.308,3.233-1.007
		c0.63-0.629,0.952-1.61,0.952-2.954v-5.809h-2.127v0.979c-0.574-0.63-1.26-1.118-2.423-1.118c-1.722,0-3.331,1.259-3.331,3.499
		v0.027c0,2.227,1.581,3.499,3.331,3.499c1.135,0,1.821-0.462,2.451-1.217v0.364c0,1.344-0.687,2.045-2.144,2.045
		c-0.993,0-1.764-0.253-2.534-0.688l-0.727,1.597C607.176,506.656,608.323,506.936,609.542,506.936 M597.461,504.668h2.127v-4.187
		c0-1.008,0.518-1.525,1.331-1.525c0.812,0,1.288,0.518,1.288,1.525v4.187h2.127v-4.858c0-1.721-0.938-2.783-2.547-2.783
		c-1.079,0-1.709,0.572-2.199,1.202v-1.063h-2.127V504.668z M593.332,504.668h2.126v-7.502h-2.126V504.668z M593.275,496.338h2.238
		v-1.888h-2.238V496.338z M589.104,504.668h2.126v-10.22h-2.126V504.668z M584.552,504.836c1.498,0,2.338-0.573,3.065-1.371
		l-1.245-1.26c-0.519,0.491-1.009,0.799-1.723,0.799c-1.162,0-1.903-0.925-1.903-2.073v-0.027c0-1.107,0.756-2.046,1.819-2.046
		c0.756,0,1.232,0.322,1.708,0.826l1.303-1.398c-0.7-0.784-1.582-1.259-2.996-1.259c-2.297,0-3.933,1.762-3.933,3.904v0.028
		C580.647,503.102,582.298,504.836,584.552,504.836 M574.822,506.95c1.274,0,1.891-0.573,2.465-2.099l2.883-7.686h-2.211
		l-1.639,5.11l-1.708-5.11h-2.253l2.939,7.532c-0.182,0.378-0.378,0.489-0.742,0.489c-0.279,0-0.629-0.126-0.909-0.294l-0.714,1.539
		C573.479,506.754,574.054,506.95,574.822,506.95 M568.647,504.836c1.498,0,2.338-0.573,3.066-1.371l-1.246-1.26
		c-0.519,0.491-1.008,0.799-1.722,0.799c-1.162,0-1.904-0.925-1.904-2.073v-0.027c0-1.107,0.756-2.046,1.82-2.046
		c0.756,0,1.231,0.322,1.708,0.826l1.302-1.398c-0.7-0.784-1.582-1.259-2.996-1.259c-2.296,0-3.932,1.762-3.932,3.904v0.028
		C564.744,503.102,566.394,504.836,568.647,504.836 M558.247,500.33c0.168-0.967,0.741-1.599,1.624-1.599
		c0.896,0,1.457,0.646,1.583,1.599H558.247z M560.081,504.836c1.357,0,2.364-0.531,3.064-1.399l-1.217-1.077
		c-0.588,0.546-1.106,0.771-1.82,0.771c-0.952,0-1.624-0.505-1.834-1.472h5.222c0.014-0.196,0.027-0.392,0.027-0.56
		c0-2.129-1.146-4.072-3.651-4.072c-2.185,0-3.71,1.762-3.71,3.904v0.028C556.162,503.256,557.828,504.836,560.081,504.836
		 M548.922,499.63v-2.816h2.143c1.051,0,1.695,0.477,1.695,1.401v0.028c0,0.826-0.603,1.387-1.653,1.387H548.922z M546.768,504.668
		h2.154v-3.136h1.695l2.101,3.136h2.518l-2.392-3.5c1.245-0.461,2.098-1.454,2.098-3.037v-0.028c0-0.925-0.294-1.694-0.839-2.239
		c-0.644-0.645-1.608-0.993-2.855-0.993h-4.479V504.668z"/>
	<path clip-path="url(#SVGID_4_)" d="M435.711,289.099h0.922v-3.552c0-1.164,0.792-1.944,1.861-1.944
		c1.092,0,1.717,0.72,1.717,1.872v3.624h0.922v-3.852c0-1.476-0.874-2.482-2.375-2.482c-1.068,0-1.717,0.539-2.125,1.21v-1.078
		h-0.922V289.099z M430.813,288.416c-1.308,0-2.293-1.08-2.293-2.412v-0.024c0-1.309,0.924-2.401,2.27-2.401
		c1.308,0,2.305,1.092,2.305,2.425v0.024C433.095,287.335,432.157,288.416,430.813,288.416 M430.79,289.243
		c1.873,0,3.251-1.487,3.251-3.239v-0.024c0-1.753-1.366-3.215-3.228-3.215c-1.873,0-3.239,1.486-3.239,3.239v0.024
		C427.574,287.78,428.929,289.243,430.79,289.243 M424.887,289.099h0.922v-6.202h-0.922V289.099z M424.827,281.539h1.055v-1.018
		h-1.055V281.539z M422.028,289.207c0.444,0,0.792-0.096,1.116-0.264v-0.791c-0.324,0.156-0.588,0.216-0.899,0.216
		c-0.624,0-1.044-0.276-1.044-1.032v-3.625h1.968v-0.814h-1.968v-1.873h-0.923v1.873h-0.863v0.814h0.863v3.745
		C420.278,288.716,421.033,289.207,422.028,289.207 M415.094,288.489c-0.84,0-1.562-0.457-1.562-1.237v-0.024
		c0-0.745,0.661-1.249,1.813-1.249c0.756,0,1.357,0.132,1.813,0.264v0.577C417.158,287.804,416.233,288.489,415.094,288.489
		 M414.914,289.23c1.092,0,1.801-0.503,2.232-1.055v0.923h0.91v-3.791c0-0.792-0.215-1.393-0.646-1.825
		c-0.443-0.443-1.128-0.683-2.005-0.683c-0.911,0-1.571,0.216-2.256,0.528l0.276,0.755c0.576-0.264,1.152-0.444,1.884-0.444
		c1.165,0,1.837,0.577,1.837,1.681v0.192c-0.552-0.156-1.104-0.264-1.896-0.264c-1.573,0-2.651,0.695-2.651,2.027v0.024
		C412.599,288.572,413.749,289.23,414.914,289.23 M409.009,289.243c1.164,0,1.908-0.503,2.532-1.199l-0.588-0.552
		c-0.492,0.528-1.104,0.924-1.896,0.924c-1.296,0-2.28-1.068-2.28-2.412v-0.024c0-1.333,0.96-2.401,2.221-2.401
		c0.84,0,1.392,0.42,1.884,0.936l0.611-0.648c-0.575-0.611-1.308-1.102-2.483-1.102c-1.813,0-3.178,1.486-3.178,3.239v0.024
		C405.831,287.768,407.196,289.243,409.009,289.243 M403.143,289.099h0.922v-6.202h-0.922V289.099z M403.083,281.539h1.054v-1.018
		h-1.054V281.539z M395.667,289.099h0.923v-3.552c0-1.164,0.792-1.944,1.859-1.944c1.094,0,1.718,0.72,1.718,1.872v3.624h0.923
		v-3.852c0-1.476-0.875-2.482-2.376-2.482c-1.068,0-1.716,0.539-2.124,1.21v-1.078h-0.923V289.099z M390.554,289.23
		c1.069,0,1.705-0.539,2.125-1.211v1.079h0.911v-6.202h-0.911v3.551c0,1.165-0.804,1.945-1.861,1.945
		c-1.092,0-1.716-0.72-1.716-1.873v-3.623h-0.923v3.851C388.179,288.225,389.054,289.23,390.554,289.23 M376.863,289.099h0.923
		v-3.54c0-1.14,0.744-1.956,1.729-1.956c0.984,0,1.596,0.684,1.596,1.848v3.648h0.911v-3.576c0-1.224,0.78-1.92,1.717-1.92
		c1.008,0,1.608,0.672,1.608,1.872v3.624h0.923v-3.84c0-1.536-0.875-2.494-2.303-2.494c-1.081,0-1.741,0.551-2.185,1.234
		c-0.335-0.695-0.983-1.234-1.991-1.234c-1.045,0-1.597,0.563-2.005,1.174v-1.042h-0.923V289.099z M365.451,289.099h0.923v-3.54
		c0-1.14,0.744-1.956,1.729-1.956c0.984,0,1.596,0.684,1.596,1.848v3.648h0.911v-3.576c0-1.224,0.78-1.92,1.717-1.92
		c1.008,0,1.608,0.672,1.608,1.872v3.624h0.923v-3.84c0-1.536-0.875-2.494-2.303-2.494c-1.081,0-1.741,0.551-2.185,1.234
		c-0.335-0.695-0.983-1.234-1.991-1.234c-1.045,0-1.597,0.563-2.005,1.174v-1.042h-0.923V289.099z M360.555,288.416
		c-1.309,0-2.293-1.08-2.293-2.412v-0.024c0-1.309,0.924-2.401,2.269-2.401c1.308,0,2.304,1.092,2.304,2.425v0.024
		C362.834,287.335,361.898,288.416,360.555,288.416 M360.531,289.243c1.872,0,3.251-1.487,3.251-3.239v-0.024
		c0-1.753-1.367-3.215-3.227-3.215c-1.873,0-3.24,1.486-3.24,3.239v0.024C357.314,287.78,358.67,289.243,360.531,289.243
		 M352.958,289.243c1.524,0,2.484-0.587,3.36-1.475l-0.624-0.612c-0.804,0.768-1.56,1.212-2.712,1.212
		c-1.848,0-3.252-1.524-3.252-3.468v-0.024c0-1.933,1.392-3.445,3.252-3.445c1.14,0,1.932,0.48,2.64,1.152l0.648-0.696
		c-0.84-0.791-1.752-1.33-3.276-1.33c-2.472,0-4.247,1.966-4.247,4.343v0.024C348.747,287.335,350.534,289.243,352.958,289.243"/>
</g>
<line fill="none" stroke="#000000" stroke-width="2" x1="396.499" y1="313" x2="396.499" y2="358"/>
<g>
	<defs>
		<rect id="SVGID_5_" width="792" height="612"/>
	</defs>
	<clipPath id="SVGID_6_">
		<use xlink:href="#SVGID_5_"  overflow="visible"/>
	</clipPath>
	<path clip-path="url(#SVGID_6_)" d="M124.263,595.86c-1.049,0-1.721-1.096-1.721-2.321v-0.015c0-1.233,0.656-2.305,1.705-2.305
		c1.04,0,1.712,1.096,1.712,2.319v0.017C125.959,594.78,125.311,595.86,124.263,595.86 M124.247,596.436
		c1.44,0,2.367-1.327,2.367-2.896v-0.015c0-1.569-0.911-2.88-2.351-2.88c-1.441,0-2.376,1.327-2.376,2.895v0.017
		C121.887,595.124,122.798,596.436,124.247,596.436 M116.983,596.339h3.911v-0.574h-2.967l1.496-1.328
		c0.984-0.856,1.415-1.361,1.415-2.177v-0.017c0-0.912-0.727-1.583-1.735-1.583c-0.984,0-1.512,0.439-2.016,1.191l0.464,0.336
		c0.448-0.624,0.864-0.96,1.504-0.96c0.608,0,1.128,0.416,1.128,1.071c0,0.561-0.312,0.992-1.168,1.762l-2.032,1.792V596.339z
		 M113.831,595.86c-1.049,0-1.721-1.096-1.721-2.321v-0.015c0-1.233,0.656-2.305,1.705-2.305c1.04,0,1.712,1.096,1.712,2.319v0.017
		C115.527,594.78,114.879,595.86,113.831,595.86 M113.815,596.436c1.44,0,2.367-1.327,2.367-2.896v-0.015
		c0-1.569-0.911-2.88-2.351-2.88c-1.441,0-2.376,1.327-2.376,2.895v0.017C111.455,595.124,112.366,596.436,113.815,596.436
		 M106.551,596.339h3.911v-0.574h-2.967l1.496-1.328c0.984-0.856,1.415-1.361,1.415-2.177v-0.017c0-0.912-0.727-1.583-1.735-1.583
		c-0.984,0-1.512,0.439-2.016,1.191l0.464,0.336c0.448-0.624,0.864-0.96,1.504-0.96c0.608,0,1.128,0.416,1.128,1.071
		c0,0.561-0.312,0.992-1.168,1.762l-2.032,1.792V596.339z M99.406,593.597v-2.273h1.729c0.904,0,1.432,0.416,1.432,1.104v0.016
		c0,0.721-0.6,1.153-1.44,1.153H99.406z M98.775,596.339h0.631v-2.176h1.601l1.624,2.176h0.775l-1.719-2.287
		c0.88-0.16,1.519-0.703,1.519-1.633v-0.016c0-0.44-0.159-0.832-0.431-1.104c-0.352-0.351-0.904-0.559-1.592-0.559h-2.408V596.339z
		 M93.415,596.339h4.087v-0.574h-3.456v-1.961h3.056v-0.575h-3.056v-1.913h3.416v-0.575h-4.047V596.339z M88.263,595.772v-1.978
		h1.768c0.976,0,1.489,0.353,1.489,0.96v0.017c0,0.625-0.529,1.001-1.377,1.001H88.263z M88.263,593.236v-1.929h1.704
		c0.8,0,1.241,0.359,1.241,0.912v0.016c0,0.657-0.529,1.001-1.289,1.001H88.263z M87.64,596.339h2.487
		c1.224,0,2.032-0.566,2.032-1.526v-0.017c0-0.769-0.536-1.152-1.2-1.352c0.44-0.192,0.888-0.568,0.888-1.297v-0.017
		c0-0.359-0.128-0.655-0.36-0.896c-0.319-0.312-0.824-0.495-1.464-0.495H87.64V596.339z M80.696,596.339h0.615v-4.526l2.04,2.991
		h0.032l2.041-2.999v4.534h0.631v-5.599h-0.639l-2.041,3.055l-2.04-3.055h-0.639V596.339z M75.336,596.339h4.087v-0.574h-3.456
		v-1.961h3.056v-0.575h-3.056v-1.913h3.416v-0.575h-4.047V596.339z M71.632,596.339h0.639v-5.016h1.88v-0.583h-4.399v0.583h1.88
		V596.339z M65.439,593.788v-2.465h1.416c0.904,0,1.505,0.416,1.505,1.216v0.017c0,0.736-0.609,1.232-1.537,1.232H65.439z
		 M64.808,596.339h0.631v-1.976h1.36c1.192,0,2.2-0.623,2.2-1.832v-0.016c0-1.104-0.831-1.775-2.096-1.775h-2.095V596.339z
		 M59.448,596.339h4.087v-0.574h-3.456v-1.961h3.056v-0.575h-3.056v-1.913h3.416v-0.575h-4.047V596.339z M56.247,596.419
		c1.113,0,1.912-0.623,1.912-1.583v-0.016c0-0.856-0.575-1.313-1.824-1.585c-1.232-0.264-1.52-0.56-1.52-1.088v-0.017
		c0-0.504,0.464-0.903,1.192-0.903c0.576,0,1.096,0.184,1.616,0.607l0.368-0.487c-0.567-0.455-1.152-0.688-1.968-0.688
		c-1.064,0-1.839,0.647-1.839,1.527v0.016c0,0.92,0.591,1.337,1.879,1.617c1.177,0.248,1.457,0.544,1.457,1.064v0.016
		c0,0.552-0.497,0.952-1.249,0.952c-0.776,0-1.336-0.265-1.92-0.792l-0.391,0.464C54.631,596.124,55.359,596.419,56.247,596.419
		 M46.303,595.756v-4.433h1.312c1.417,0,2.321,0.976,2.321,2.216v0.017c0,1.24-0.904,2.2-2.321,2.2H46.303z M45.672,596.339h1.943
		c1.761,0,2.976-1.223,2.976-2.8v-0.016c0-1.576-1.215-2.783-2.976-2.783h-1.943V596.339z M40.312,596.339h4.087v-0.574h-3.456
		v-1.961h3.056v-0.575h-3.056v-1.913h3.416v-0.575h-4.047V596.339z M36.608,596.339h0.639v-5.016h1.88v-0.583h-4.399v0.583h1.88
		V596.339z M30.608,594.292l1.279-2.856l1.272,2.856H30.608z M29.048,596.339h0.648l0.664-1.479h3.047l0.656,1.479h0.68
		l-2.552-5.639h-0.592L29.048,596.339z M24.168,596.339h4.087v-0.574h-3.456v-1.961h3.056v-0.575h-3.056v-1.913h3.416v-0.575h-4.047
		V596.339z M19.015,593.597v-2.273h1.728c0.905,0,1.433,0.416,1.433,1.104v0.016c0,0.721-0.6,1.153-1.441,1.153H19.015z
		 M18.384,596.339h0.631v-2.176h1.6l1.625,2.176h0.775l-1.719-2.287c0.88-0.16,1.519-0.703,1.519-1.633v-0.016
		c0-0.44-0.16-0.832-0.431-1.104c-0.352-0.351-0.904-0.559-1.592-0.559h-2.408V596.339z M15.039,596.436
		c1.016,0,1.656-0.392,2.24-0.983l-0.416-0.408c-0.536,0.513-1.04,0.809-1.808,0.809c-1.232,0-2.168-1.017-2.168-2.313v-0.016
		c0-1.289,0.928-2.297,2.168-2.297c0.76,0,1.288,0.319,1.76,0.768l0.432-0.464c-0.56-0.528-1.168-0.887-2.184-0.887
		c-1.648,0-2.831,1.311-2.831,2.896v0.016C12.232,595.164,13.423,596.436,15.039,596.436"/>
	
		<ellipse clip-path="url(#SVGID_6_)" fill="none" stroke="#25408F" stroke-width="4" cx="395.75" cy="284.75" rx="113.254" ry="25.75"/>
</g>
<polygon points="399.455,245.416 395.639,236.704 393.155,236.704 389.339,245.416 391.913,245.416 394.415,239.332 
	396.917,245.416 "/>
<polygon points="391.561,339.583 395.377,348.295 397.861,348.295 401.677,339.583 399.104,339.583 396.602,345.667 
	394.099,339.583 "/>
<g>
	<defs>
		<rect id="SVGID_7_" width="792" height="612"/>
	</defs>
	<clipPath id="SVGID_8_">
		<use xlink:href="#SVGID_7_"  overflow="visible"/>
	</clipPath>
	<path clip-path="url(#SVGID_8_)" fill="#FFFFFF" d="M221.5,341.25c2.899,0,5.25-2.35,5.25-5.25c0-2.899-2.351-5.25-5.25-5.25
		s-5.25,2.351-5.25,5.25C216.25,338.9,218.601,341.25,221.5,341.25"/>
	<circle clip-path="url(#SVGID_8_)" fill="none" stroke="#614372" stroke-width="1.4" cx="221.5" cy="336" r="5.25"/>
</g>
<text transform="matrix(1 0 0 1.53 218.6123 339.4121)"><tspan x="0" y="0" fill="#614372" font-family="'Gotham-Bold'" font-size="6.3" letter-spacing="-1">&gt;</tspan><tspan x="2.778" y="0" fill="#614372" font-family="'Gotham-Bold'" font-size="6.3">&gt;</tspan></text>
<g>
	<defs>
		<rect id="SVGID_9_" width="792" height="612"/>
	</defs>
	<clipPath id="SVGID_10_">
		<use xlink:href="#SVGID_9_"  overflow="visible"/>
	</clipPath>
	<path clip-path="url(#SVGID_10_)" fill="#FFFFFF" d="M647.949,341.78c2.899,0,5.25-2.351,5.25-5.25s-2.351-5.25-5.25-5.25
		s-5.25,2.351-5.25,5.25S645.05,341.78,647.949,341.78"/>
	<circle clip-path="url(#SVGID_10_)" fill="none" stroke="#614372" stroke-width="1.4" cx="647.949" cy="336.53" r="5.25"/>
</g>
<text transform="matrix(1 0 0 1.53 645.0615 339.9434)"><tspan x="0" y="0" fill="#614372" font-family="'Gotham-Bold'" font-size="6.3" letter-spacing="-1">&gt;</tspan><tspan x="2.772" y="0" fill="#614372" font-family="'Gotham-Bold'" font-size="6.3">&gt;</tspan></text>
<g>
	<defs>
		<rect id="SVGID_11_" width="792" height="612"/>
	</defs>
	<clipPath id="SVGID_12_">
		<use xlink:href="#SVGID_11_"  overflow="visible"/>
	</clipPath>
	<path clip-path="url(#SVGID_12_)" fill="#FFFFFF" d="M488.45,400.633c2.899,0,5.25-2.352,5.25-5.25c0-2.899-2.351-5.25-5.25-5.25
		c-2.9,0-5.25,2.351-5.25,5.25C483.2,398.281,485.55,400.633,488.45,400.633"/>
	<circle clip-path="url(#SVGID_12_)" fill="none" stroke="#614372" stroke-width="1.4" cx="488.45" cy="395.383" r="5.25"/>
</g>
<text transform="matrix(1 0 0 1.53 485.5625 398.7949)"><tspan x="0" y="0" fill="#614372" font-family="'Gotham-Bold'" font-size="6.3" letter-spacing="-1">&gt;</tspan><tspan x="2.778" y="0" fill="#614372" font-family="'Gotham-Bold'" font-size="6.3">&gt;</tspan></text>
<g>
	<defs>
		<rect id="SVGID_13_" width="792" height="612"/>
	</defs>
	<clipPath id="SVGID_14_">
		<use xlink:href="#SVGID_13_"  overflow="visible"/>
	</clipPath>
	<path clip-path="url(#SVGID_14_)" fill="#FFFFFF" d="M259.55,528.25c2.9,0,5.25-2.351,5.25-5.25s-2.35-5.25-5.25-5.25
		c-2.899,0-5.25,2.351-5.25,5.25S256.651,528.25,259.55,528.25"/>
	<circle clip-path="url(#SVGID_14_)" fill="none" stroke="#614372" stroke-width="1.4" cx="259.55" cy="523" r="5.25"/>
</g>
<text transform="matrix(1 0 0 1.53 256.6626 526.4121)"><tspan x="0" y="0" fill="#614372" font-family="'Gotham-Bold'" font-size="6.3" letter-spacing="-1">&gt;</tspan><tspan x="2.778" y="0" fill="#614372" font-family="'Gotham-Bold'" font-size="6.3">&gt;</tspan></text>
<g>
	<defs>
		<rect id="SVGID_15_" width="792" height="612"/>
	</defs>
	<clipPath id="SVGID_16_">
		<use xlink:href="#SVGID_15_"  overflow="visible"/>
	</clipPath>
	<path clip-path="url(#SVGID_16_)" fill="#FFFFFF" d="M472.529,528.25c2.899,0,5.25-2.351,5.25-5.25s-2.351-5.25-5.25-5.25
		c-2.9,0-5.25,2.351-5.25,5.25S469.629,528.25,472.529,528.25"/>
	<circle clip-path="url(#SVGID_16_)" fill="none" stroke="#614372" stroke-width="1.4" cx="472.529" cy="523" r="5.25"/>
</g>
<text transform="matrix(1 0 0 1.53 469.6416 526.4121)"><tspan x="0" y="0" fill="#614372" font-family="'Gotham-Bold'" font-size="6.3" letter-spacing="-1">&gt;</tspan><tspan x="2.778" y="0" fill="#614372" font-family="'Gotham-Bold'" font-size="6.3">&gt;</tspan></text>
<g>
	<defs>
		<rect id="SVGID_17_" width="792" height="612"/>
	</defs>
	<clipPath id="SVGID_18_">
		<use xlink:href="#SVGID_17_"  overflow="visible"/>
	</clipPath>
	<path clip-path="url(#SVGID_18_)" fill="#FFFFFF" d="M681,528.25c2.899,0,5.25-2.351,5.25-5.25s-2.351-5.25-5.25-5.25
		c-2.9,0-5.25,2.351-5.25,5.25S678.1,528.25,681,528.25"/>
	<circle clip-path="url(#SVGID_18_)" fill="none" stroke="#614372" stroke-width="1.4" cx="681" cy="523" r="5.25"/>
</g>
<text transform="matrix(1 0 0 1.53 678.1123 526.4121)"><tspan x="0" y="0" fill="#614372" font-family="'Gotham-Bold'" font-size="6.3" letter-spacing="-1">&gt;</tspan><tspan x="2.772" y="0" fill="#614372" font-family="'Gotham-Bold'" font-size="6.3">&gt;</tspan></text>
</svg>
